<svg width="177" height="37" viewBox="0 0 177 37" fill="none" xmlns="http://www.w3.org/2000/svg">
<path d="M18.125 36.25C28.1352 36.25 36.25 28.1352 36.25 18.125C36.25 8.11484 28.1352 0 18.125 0C8.11484 0 0 8.11484 0 18.125C0 28.1352 8.11484 36.25 18.125 36.25Z" fill="#3671E9"/>
<path d="M18.5164 8.23843L11.0164 21.5236C9.92428 20.9675 9.01013 20.1179 8.37624 19.0681C7.74234 18.0182 7.41538 16.8149 7.43095 15.5894C7.43095 11.6415 10.5448 8.24955 16.2877 8.24955L18.5164 8.23843Z" fill="white"/>
<path d="M18.5165 27.9404H25.565C25.565 27.9404 28.819 24.4439 28.819 20.0467C28.819 14.8354 23.6678 14.7464 23.6678 14.7464L24.1015 13.9969C24.4351 13.4097 24.6086 12.7469 24.6064 12.0729C24.6042 11.399 24.424 10.7362 24.0837 10.1535C23.7456 9.57072 23.2585 9.08584 22.6736 8.74999C22.0886 8.41414 21.4258 8.2362 20.7519 8.23842L16.8284 15.2758C17.876 15.387 22.4934 16.1121 22.4934 20.1979C22.4934 24.1148 18.5165 27.9404 18.5165 27.9404Z" fill="white"/>
<path d="M9.78198 27.9404C10.3358 28.0027 10.8941 28.0271 11.4524 28.0138C15.4759 28.0138 20.3247 25.3448 20.3247 20.5738C20.3247 17.5445 16.7815 17.262 15.7339 17.2375L9.78198 27.9404Z" fill="white"/>
<path d="M45 29.6509V8.41455H51.6909C56.4327 8.41455 59.08 10.4218 59.08 14.3491C59.08 16.1818 58.2945 17.5782 56.7527 18.48C58.7309 19.3818 59.8364 21.0109 59.8364 23.3673C59.8364 27.5564 56.8982 29.6509 52.2145 29.6509H45ZM52.04 20.5745H48.9564V26.0145H52.2145C54.6291 26.0145 55.8509 25.0255 55.8509 23.28C55.8509 21.5345 54.9782 20.5745 52.04 20.5745ZM51.6909 12.0509H48.9564V16.88H51.6909C54.2218 16.88 55.0945 15.8618 55.0945 14.3491C55.0945 12.7491 54.1345 12.0509 51.6909 12.0509Z" fill="#131C26"/>
<path d="M62.4616 29.6509V12.6327H66.418V29.6509H62.4616ZM61.967 8.47273C61.967 6.98909 62.927 6 64.4398 6C65.9816 6 66.9125 6.98909 66.9125 8.47273C66.9125 9.95636 65.9816 10.9164 64.4398 10.9164C62.8398 10.9164 61.967 9.95636 61.967 8.47273Z" fill="#131C26"/>
<path d="M77.8177 30C72.9014 30 69.0032 26.0436 69.0032 21.1564C69.0032 16.1818 72.9014 12.2836 77.8177 12.2836C82.705 12.2836 86.6323 16.1818 86.6323 21.1564C86.6323 26.0436 82.705 30 77.8177 30ZM77.8177 26.3055C80.6105 26.3055 82.7632 23.9782 82.7632 21.1564C82.7632 18.2764 80.6105 15.9782 77.8177 15.9782C74.9959 15.9782 72.8723 18.2764 72.8723 21.1564C72.8723 23.9782 74.9959 26.3055 77.8177 26.3055Z" fill="#131C26"/>
<path d="M89.2355 29.6509V12.6327H93.1336V14.7273C94.2682 13.2436 96.0136 12.2836 98.2245 12.2836C102.501 12.2836 104.974 14.9309 104.974 19.5564V29.6509H100.988V19.9636C100.988 17.3164 99.7082 15.6873 97.1482 15.6873C94.9082 15.6873 93.1627 17.3164 93.1627 20.3127V29.6509H89.2355Z" fill="#131C26"/>
<path d="M108.207 29.6509V8.41455H112.163V25.8691H119.93V29.6509H108.207Z" fill="#131C26"/>
<path d="M130.397 30C126.295 30 122.019 26.7418 122.019 21.1564C122.019 15.5127 126.15 12.2836 130.455 12.2836C132.695 12.2836 134.674 13.1855 135.925 14.6691V12.6327H139.852V29.6509H135.925V27.44C134.674 29.04 132.637 30 130.397 30ZM131.037 26.3927C133.975 26.3927 136.128 24.0364 136.128 21.0982C136.128 18.1891 133.975 15.8618 131.037 15.8618C128.128 15.8618 125.888 18.16 125.888 21.0982C125.888 24.0655 128.128 26.3927 131.037 26.3927Z" fill="#131C26"/>
<path d="M152.445 30C150.118 30 148.111 29.0691 146.86 27.44V29.6509H142.962V8.12364H146.889V14.7855C148.082 13.2727 150.089 12.2836 152.387 12.2836C156.663 12.2836 160.765 15.5127 160.765 21.1564C160.765 26.7418 156.518 30 152.445 30ZM151.776 26.3927C154.656 26.3927 156.896 24.0655 156.896 21.0982C156.896 18.16 154.656 15.8618 151.776 15.8618C148.867 15.8618 146.714 18.1891 146.714 21.0982C146.714 24.0364 148.867 26.3927 151.776 26.3927Z" fill="#131C26"/>
<path d="M169.666 30C165.855 30 163.47 28.5455 162.102 25.8691L165.739 24.1236C166.553 25.7236 167.979 26.5964 169.841 26.5964C171.79 26.5964 172.75 25.6655 172.75 24.5309C172.75 23.28 170.859 23.0473 168.764 22.5818C165.855 21.9709 162.801 21.04 162.801 17.4618C162.801 14.7273 165.448 12.2545 169.492 12.2545C172.953 12.2545 175.135 13.5927 176.444 15.7745L173.099 17.4618C172.401 16.2691 171.121 15.5127 169.492 15.5127C167.63 15.5127 166.757 16.3855 166.757 17.3455C166.757 18.48 168.095 18.7709 170.655 19.3236C173.448 19.8764 176.648 20.8655 176.648 24.4436C176.648 26.8291 174.524 30 169.666 30Z" fill="#131C26"/>
</svg>
